<?xml version="1.0" encoding="UTF-8" standalone="no"?>
<!DOCTYPE svg PUBLIC "-//W3C//DTD SVG 1.1//EN" "http://www.w3.org/Graphics/SVG/1.1/DTD/svg11.dtd">
<svg width="38pt" height="38pt" viewBox="0 0 864 864" version="1.1" xmlns="http://www.w3.org/2000/svg"
     xmlns:xlink="http://www.w3.org/1999/xlink" xml:space="preserve" xmlns:serif="http://www.serif.com/"
     style="fill-rule:evenodd;clip-rule:evenodd;stroke-linecap:round;stroke-linejoin:round;stroke-miterlimit:1.5;">
    <g id="Y">
        <path d="M61,586C61,586 400.511,585.524 431,586C463.045,586.5 460.699,613.733 473,615C485.301,616.267 513.815,220.284 526,198C547.678,158.354 549.938,292.501 573,293.4C603.584,294.592 590.566,253.403 610,253C629.434,252.597 625.672,287.168 640,287C654.328,286.832 668.236,259.559 679,259C689.764,258.441 696.293,278.814 712,280C730.746,281.416 787.742,273 798,272"
              style="fill-opacity:0;stroke:rgb(255,0,120);stroke-width:12px;"/>
    </g>
    <g id="X">
        <g transform="matrix(1.447059,0,0,1.447059,-28.164706,-261.976471)">
            <path d="M63,586L318,586" style="fill:none;"/>
            <path d="M63,588.764C61.474,588.764 60.236,587.526 60.236,586C60.236,584.474 61.474,583.236 63,583.236L66.036,583.236C67.561,583.236 68.8,584.474 68.8,586C68.8,587.526 67.561,588.764 66.036,588.764L63,588.764ZM72.107,588.764C70.582,588.764 69.343,587.526 69.343,586C69.343,584.474 70.582,583.236 72.107,583.236L78.179,583.236C79.704,583.236 80.943,584.474 80.943,586C80.943,587.526 79.704,588.764 78.179,588.764L72.107,588.764ZM84.25,588.764C82.724,588.764 81.486,587.526 81.486,586C81.486,584.474 82.724,583.236 84.25,583.236L90.321,583.236C91.847,583.236 93.085,584.474 93.085,586C93.085,587.526 91.847,588.764 90.321,588.764L84.25,588.764ZM96.393,588.764C94.867,588.764 93.629,587.526 93.629,586C93.629,584.474 94.867,583.236 96.393,583.236L102.464,583.236C103.99,583.236 105.228,584.474 105.228,586C105.228,587.526 103.99,588.764 102.464,588.764L96.393,588.764ZM108.536,588.764C107.01,588.764 105.772,587.526 105.772,586C105.772,584.474 107.01,583.236 108.536,583.236L114.607,583.236C116.133,583.236 117.372,584.474 117.372,586C117.372,587.526 116.133,588.764 114.607,588.764L108.536,588.764ZM120.678,588.764C119.153,588.764 117.914,587.526 117.914,586C117.914,584.474 119.153,583.236 120.678,583.236L126.75,583.236C128.276,583.236 129.514,584.474 129.514,586C129.514,587.526 128.276,588.764 126.75,588.764L120.678,588.764ZM132.821,588.764C131.296,588.764 130.057,587.526 130.057,586C130.057,584.474 131.296,583.236 132.821,583.236L138.892,583.236C140.418,583.236 141.657,584.474 141.657,586C141.657,587.526 140.418,588.764 138.892,588.764L132.821,588.764ZM144.964,588.764C143.438,588.764 142.2,587.526 142.2,586C142.2,584.474 143.438,583.236 144.964,583.236L151.035,583.236C152.561,583.236 153.8,584.474 153.8,586C153.8,587.526 152.561,588.764 151.035,588.764L144.964,588.764ZM157.107,588.764C155.581,588.764 154.343,587.526 154.343,586C154.343,584.474 155.581,583.236 157.107,583.236L163.178,583.236C164.704,583.236 165.942,584.474 165.942,586C165.942,587.526 164.704,588.764 163.178,588.764L157.107,588.764ZM169.25,588.764C167.724,588.764 166.486,587.526 166.486,586C166.486,584.474 167.724,583.236 169.25,583.236L175.321,583.236C176.847,583.236 178.086,584.474 178.086,586C178.086,587.526 176.847,588.764 175.321,588.764L169.25,588.764ZM181.393,588.764C179.867,588.764 178.629,587.526 178.629,586C178.629,584.474 179.867,583.236 181.393,583.236L187.464,583.236C188.99,583.236 190.229,584.474 190.229,586C190.229,587.526 188.99,588.764 187.464,588.764L181.393,588.764ZM193.536,588.764C192.01,588.764 190.772,587.526 190.772,586C190.772,584.474 192.01,583.236 193.536,583.236L199.607,583.236C201.133,583.236 202.372,584.474 202.372,586C202.372,587.526 201.133,588.764 199.607,588.764L193.536,588.764ZM205.679,588.764C204.153,588.764 202.915,587.526 202.915,586C202.915,584.474 204.153,583.236 205.679,583.236L211.75,583.236C213.276,583.236 214.515,584.474 214.515,586C214.515,587.526 213.276,588.764 211.75,588.764L205.679,588.764ZM217.822,588.764C216.296,588.764 215.057,587.526 215.057,586C215.057,584.474 216.296,583.236 217.822,583.236L223.893,583.236C225.419,583.236 226.657,584.474 226.657,586C226.657,587.526 225.419,588.764 223.893,588.764L217.822,588.764ZM229.964,588.764C228.439,588.764 227.2,587.526 227.2,586C227.2,584.474 228.439,583.236 229.964,583.236L236.036,583.236C237.561,583.236 238.8,584.474 238.8,586C238.8,587.526 237.561,588.764 236.036,588.764L229.964,588.764ZM242.107,588.764C240.581,588.764 239.343,587.526 239.343,586C239.343,584.474 240.581,583.236 242.107,583.236L248.178,583.236C249.704,583.236 250.943,584.474 250.943,586C250.943,587.526 249.704,588.764 248.178,588.764L242.107,588.764ZM254.25,588.764C252.724,588.764 251.486,587.526 251.486,586C251.486,584.474 252.724,583.236 254.25,583.236L260.321,583.236C261.847,583.236 263.085,584.474 263.085,586C263.085,587.526 261.847,588.764 260.321,588.764L254.25,588.764ZM266.393,588.764C264.867,588.764 263.629,587.526 263.629,586C263.629,584.474 264.867,583.236 266.393,583.236L272.465,583.236C273.99,583.236 275.229,584.474 275.229,586C275.229,587.526 273.99,588.764 272.465,588.764L266.393,588.764ZM278.536,588.764C277.01,588.764 275.771,587.526 275.771,586C275.771,584.474 277.01,583.236 278.536,583.236L284.607,583.236C286.133,583.236 287.371,584.474 287.371,586C287.371,587.526 286.133,588.764 284.607,588.764L278.536,588.764ZM290.679,588.764C289.153,588.764 287.914,587.526 287.914,586C287.914,584.474 289.153,583.236 290.679,583.236L296.75,583.236C298.276,583.236 299.514,584.474 299.514,586C299.514,587.526 298.276,588.764 296.75,588.764L290.679,588.764ZM302.821,588.764C301.296,588.764 300.057,587.526 300.057,586C300.057,584.474 301.296,583.236 302.821,583.236L308.893,583.236C310.418,583.236 311.657,584.474 311.657,586C311.657,587.526 310.418,588.764 308.893,588.764L302.821,588.764ZM314.964,588.764C313.439,588.764 312.2,587.526 312.2,586C312.2,584.474 313.439,583.236 314.964,583.236L318,583.236C319.526,583.236 320.764,584.474 320.764,586C320.764,587.526 319.526,588.764 318,588.764L314.964,588.764Z"
                  style="fill:rgb(129,178,255);"/>
        </g>
        <g transform="matrix(0.850416,0,0,0.850416,161.567867,87.65651)">
            <path d="M318,586L318,225" style="fill:none;"/>
            <path d="M322.704,586C322.704,588.596 320.596,590.704 318,590.704C315.404,590.704 313.296,588.596 313.296,586L313.296,580.986C313.296,578.39 315.404,576.283 318,576.283C320.596,576.283 322.704,578.39 322.704,580.986L322.704,586ZM322.704,570.958C322.704,573.554 320.596,575.662 318,575.662C315.404,575.662 313.296,573.554 313.296,570.958L313.296,560.931C313.296,558.335 315.404,556.227 318,556.227C320.596,556.227 322.704,558.335 322.704,560.931L322.704,570.958ZM322.704,550.903C322.704,553.499 320.596,555.606 318,555.606C315.404,555.606 313.296,553.499 313.296,550.903L313.296,540.875C313.296,538.279 315.404,536.171 318,536.171C320.596,536.171 322.704,538.279 322.704,540.875L322.704,550.903ZM322.704,530.847C322.704,533.443 320.596,535.55 318,535.55C315.404,535.55 313.296,533.443 313.296,530.847L313.296,520.819C313.296,518.223 315.404,516.115 318,516.115C320.596,516.115 322.704,518.223 322.704,520.819L322.704,530.847ZM322.704,510.792C322.704,513.388 320.596,515.495 318,515.495C315.404,515.495 313.296,513.388 313.296,510.792L313.296,500.764C313.296,498.168 315.404,496.06 318,496.06C320.596,496.06 322.704,498.168 322.704,500.764L322.704,510.792ZM322.704,490.736C322.704,493.332 320.596,495.44 318,495.44C315.404,495.44 313.296,493.332 313.296,490.736L313.296,480.708C313.296,478.112 315.404,476.004 318,476.004C320.596,476.004 322.704,478.112 322.704,480.708L322.704,490.736ZM322.704,470.68C322.704,473.276 320.596,475.384 318,475.384C315.404,475.384 313.296,473.276 313.296,470.68L313.296,460.653C313.296,458.057 315.404,455.949 318,455.949C320.596,455.949 322.704,458.057 322.704,460.653L322.704,470.68ZM322.704,450.625C322.704,453.221 320.596,455.328 318,455.328C315.404,455.328 313.296,453.221 313.296,450.625L313.296,440.597C313.296,438.001 315.404,435.893 318,435.893C320.596,435.893 322.704,438.001 322.704,440.597L322.704,450.625ZM322.704,430.569C322.704,433.165 320.596,435.273 318,435.273C315.404,435.273 313.296,433.165 313.296,430.569L313.296,420.542C313.296,417.946 315.404,415.838 318,415.838C320.596,415.838 322.704,417.946 322.704,420.542L322.704,430.569ZM322.704,410.514C322.704,413.11 320.596,415.218 318,415.218C315.404,415.218 313.296,413.11 313.296,410.514L313.296,400.486C313.296,397.89 315.404,395.783 318,395.783C320.596,395.783 322.704,397.89 322.704,400.486L322.704,410.514ZM322.704,390.458C322.704,393.054 320.596,395.162 318,395.162C315.404,395.162 313.296,393.054 313.296,390.458L313.296,380.431C313.296,377.835 315.404,375.727 318,375.727C320.596,375.727 322.704,377.835 322.704,380.431L322.704,390.458ZM322.704,370.403C322.704,372.998 320.596,375.106 318,375.106C315.404,375.106 313.296,372.998 313.296,370.403L313.296,360.375C313.296,357.779 315.404,355.671 318,355.671C320.596,355.671 322.704,357.779 322.704,360.375L322.704,370.403ZM322.704,350.347C322.704,352.943 320.596,355.051 318,355.051C315.404,355.051 313.296,352.943 313.296,350.347L313.296,340.32C313.296,337.724 315.404,335.616 318,335.616C320.596,335.616 322.704,337.724 322.704,340.32L322.704,350.347ZM322.704,330.291C322.704,332.887 320.596,334.995 318,334.995C315.404,334.995 313.296,332.887 313.296,330.291L313.296,320.263C313.296,317.668 315.404,315.56 318,315.56C320.596,315.56 322.704,317.668 322.704,320.263L322.704,330.291ZM322.704,310.236C322.704,312.832 320.596,314.94 318,314.94C315.404,314.94 313.296,312.832 313.296,310.236L313.296,300.209C313.296,297.613 315.404,295.505 318,295.505C320.596,295.505 322.704,297.613 322.704,300.209L322.704,310.236ZM322.704,290.18C322.704,292.776 320.596,294.884 318,294.884C315.404,294.884 313.296,292.776 313.296,290.18L313.296,280.153C313.296,277.557 315.404,275.449 318,275.449C320.596,275.449 322.704,277.557 322.704,280.153L322.704,290.18ZM322.704,270.125C322.704,272.721 320.596,274.829 318,274.829C315.404,274.829 313.296,272.721 313.296,270.125L313.296,260.097C313.296,257.501 315.404,255.394 318,255.394C320.596,255.394 322.704,257.501 322.704,260.097L322.704,270.125ZM322.704,250.069C322.704,252.665 320.596,254.773 318,254.773C315.404,254.773 313.296,252.665 313.296,250.069L313.296,240.042C313.296,237.446 315.404,235.338 318,235.338C320.596,235.338 322.704,237.446 322.704,240.042L322.704,250.069ZM322.704,230.014C322.704,232.61 320.596,234.717 318,234.717C315.404,234.717 313.296,232.61 313.296,230.014L313.296,225C313.296,222.404 315.404,220.296 318,220.296C320.596,220.296 322.704,222.404 322.704,225L322.704,230.014Z"
                  style="fill:rgb(129,178,255);"/>
        </g>
        <g transform="matrix(0.769388,0,0,0.769388,186.334694,97.887755)">
            <path d="M318,225L808,225" style="fill:none;"/>
            <path d="M318,230.199C315.131,230.199 312.801,227.869 312.801,225C312.801,222.131 315.131,219.801 318,219.801L323.833,219.801C326.703,219.801 329.032,222.131 329.032,225C329.032,227.869 326.703,230.199 323.833,230.199L318,230.199ZM335.5,230.199C332.631,230.199 330.301,227.869 330.301,225C330.301,222.131 332.631,219.801 335.5,219.801L347.167,219.801C350.036,219.801 352.366,222.131 352.366,225C352.366,227.869 350.036,230.199 347.167,230.199L335.5,230.199ZM358.833,230.199C355.964,230.199 353.634,227.869 353.634,225C353.634,222.131 355.964,219.801 358.833,219.801L370.499,219.801C373.369,219.801 375.698,222.131 375.698,225C375.698,227.869 373.369,230.199 370.499,230.199L358.833,230.199ZM382.167,230.199C379.297,230.199 376.968,227.869 376.968,225C376.968,222.131 379.297,219.801 382.167,219.801L393.833,219.801C396.703,219.801 399.032,222.131 399.032,225C399.032,227.869 396.703,230.199 393.833,230.199L382.167,230.199ZM405.5,230.199C402.631,230.199 400.301,227.869 400.301,225C400.301,222.131 402.631,219.801 405.5,219.801L417.167,219.801C420.037,219.801 422.366,222.131 422.366,225C422.366,227.869 420.037,230.199 417.167,230.199L405.5,230.199ZM428.833,230.199C425.963,230.199 423.634,227.869 423.634,225C423.634,222.131 425.963,219.801 428.833,219.801L440.5,219.801C443.369,219.801 445.699,222.131 445.699,225C445.699,227.869 443.369,230.199 440.5,230.199L428.833,230.199ZM452.166,230.199C449.297,230.199 446.967,227.869 446.967,225C446.967,222.131 449.297,219.801 452.166,219.801L463.832,219.801C466.702,219.801 469.031,222.131 469.031,225C469.031,227.869 466.702,230.199 463.832,230.199L452.166,230.199ZM475.499,230.199C472.63,230.199 470.3,227.869 470.3,225C470.3,222.131 472.63,219.801 475.499,219.801L487.166,219.801C490.035,219.801 492.365,222.131 492.365,225C492.365,227.869 490.035,230.199 487.166,230.199L475.499,230.199ZM498.833,230.199C495.963,230.199 493.634,227.869 493.634,225C493.634,222.131 495.963,219.801 498.833,219.801L510.499,219.801C513.369,219.801 515.698,222.131 515.698,225C515.698,227.869 513.369,230.199 510.499,230.199L498.833,230.199ZM522.167,230.199C519.297,230.199 516.968,227.869 516.968,225C516.968,222.131 519.297,219.801 522.167,219.801L533.833,219.801C536.703,219.801 539.032,222.131 539.032,225C539.032,227.869 536.703,230.199 533.833,230.199L522.167,230.199ZM545.5,230.199C542.631,230.199 540.301,227.869 540.301,225C540.301,222.131 542.631,219.801 545.5,219.801L557.167,219.801C560.036,219.801 562.366,222.131 562.366,225C562.366,227.869 560.036,230.199 557.167,230.199L545.5,230.199ZM568.834,230.199C565.964,230.199 563.635,227.869 563.635,225C563.635,222.131 565.964,219.801 568.834,219.801L580.5,219.801C583.37,219.801 585.699,222.131 585.699,225C585.699,227.869 583.37,230.199 580.5,230.199L568.834,230.199ZM592.167,230.199C589.298,230.199 586.968,227.869 586.968,225C586.968,222.131 589.298,219.801 592.167,219.801L603.834,219.801C606.703,219.801 609.033,222.131 609.033,225C609.033,227.869 606.703,230.199 603.834,230.199L592.167,230.199ZM615.5,230.199C612.631,230.199 610.301,227.869 610.301,225C610.301,222.131 612.631,219.801 615.5,219.801L627.167,219.801C630.037,219.801 632.366,222.131 632.366,225C632.366,227.869 630.037,230.199 627.167,230.199L615.5,230.199ZM638.833,230.199C635.964,230.199 633.634,227.869 633.634,225C633.634,222.131 635.964,219.801 638.833,219.801L650.5,219.801C653.369,219.801 655.699,222.131 655.699,225C655.699,227.869 653.369,230.199 650.5,230.199L638.833,230.199ZM662.166,230.199C659.297,230.199 656.967,227.869 656.967,225C656.967,222.131 659.297,219.801 662.166,219.801L673.833,219.801C676.702,219.801 679.032,222.131 679.032,225C679.032,227.869 676.702,230.199 673.833,230.199L662.166,230.199ZM685.5,230.199C682.63,230.199 680.301,227.869 680.301,225C680.301,222.131 682.63,219.801 685.5,219.801L697.166,219.801C700.036,219.801 702.365,222.131 702.365,225C702.365,227.869 700.036,230.199 697.166,230.199L685.5,230.199ZM708.834,230.199C705.964,230.199 703.635,227.869 703.635,225C703.635,222.131 705.964,219.801 708.834,219.801L720.5,219.801C723.37,219.801 725.699,222.131 725.699,225C725.699,227.869 723.37,230.199 720.5,230.199L708.834,230.199ZM732.166,230.199C729.297,230.199 726.967,227.869 726.967,225C726.967,222.131 729.297,219.801 732.166,219.801L743.833,219.801C746.703,219.801 749.032,222.131 749.032,225C749.032,227.869 746.703,230.199 743.833,230.199L732.166,230.199ZM755.5,230.199C752.631,230.199 750.301,227.869 750.301,225C750.301,222.131 752.631,219.801 755.5,219.801L767.167,219.801C770.036,219.801 772.366,222.131 772.366,225C772.366,227.869 770.036,230.199 767.167,230.199L755.5,230.199ZM778.833,230.199C775.964,230.199 773.634,227.869 773.634,225C773.634,222.131 775.964,219.801 778.833,219.801L790.5,219.801C793.369,219.801 795.699,222.131 795.699,225C795.699,227.869 793.369,230.199 790.5,230.199L778.833,230.199ZM802.167,230.199C799.297,230.199 796.968,227.869 796.968,225C796.968,222.131 799.297,219.801 802.167,219.801L808,219.801C810.869,219.801 813.199,222.131 813.199,225C813.199,227.869 810.869,230.199 808,230.199L802.167,230.199Z"
                  style="fill:rgb(129,178,255);"/>
        </g>
    </g>
</svg>
